<?xml version="1.0" encoding="UTF-8" standalone="no"?>
<!-- Created with Inkscape (http://www.inkscape.org/) -->

<svg
   width="516.87885mm"
   height="511.5817mm"
   viewBox="0 0 516.87885 511.5817"
   version="1.1"
   id="svg5"
   xml:space="preserve"
   xmlns="http://www.w3.org/2000/svg"
   xmlns:svg="http://www.w3.org/2000/svg"><defs
     id="defs2" /><g
     id="layer1"
     transform="translate(9199.2347,10059.508)"><path
       style="fill:; stroke: #FFFFFF;stroke-width:10"
       d="m -8959.2941,-9548.3761 c -34.1682,-2.0278 -68.2585,-11.0493 -98.109,-25.9618 -29.067,-14.5232 -53.3411,-32.8095 -75.6082,-56.9565 -33.3355,-36.153 -55.3991,-81.4452 -63.089,-129.5025 -3.7408,-23.381 -4.1524,-50.5617 -1.1314,-74.561 2.096,-16.6386 6.6759,-36.5556 11.7342,-51.0166 11.5578,-33.045 28.6443,-62.444 50.5872,-87.042 50.1756,-56.2485 124.6698,-87.9705 201.9642,-86.0055 37.7373,0.96 71.4431,9.019 104.5544,24.999 47.1928,22.776 84.6394,57.0825 110.3835,101.1275 7.5818,12.967 17.0515,33.89 22.1256,48.884 8.699,25.694 13.5252,55.6931 13.5268,84.0911 0,46.4045 -13.1326,91.6188 -38.2777,131.7447 -25.4946,40.6821 -65.8334,76.0516 -108.9484,95.525 -41.4481,18.7217 -86.2889,27.2506 -129.7122,24.6746 z m 39.8032,-5.2855 c 12.4907,-1.2236 24.4442,-3.3197 37.2797,-6.533 18.2927,-4.5815 32.3582,-9.7255 47.5313,-17.3868 10.7156,-5.4094 16.009,-8.8753 20.001,-13.0961 3.4023,-3.5978 3.2895,-3.9411 -1.4779,-4.51 -4.4544,-0.5324 -4.4512,-0.5165 -0.7612,-4.5735 5.1249,-5.6351 18.9298,-21.722 22.4911,-26.2082 3.4961,-4.4051 9.3585,-12.7259 14.0639,-19.9612 2.9876,-4.5942 3.3626,-4.9454 7.8631,-7.3387 11.0366,-5.8719 20.8607,-13.5252 33.0049,-25.7123 9.6922,-9.7287 11.9837,-12.7465 16.4079,-21.6124 9.6032,-19.2461 17.5553,-44.6183 20.9433,-66.8314 1.3174,-8.6401 1.5145,-11.6325 1.5288,-23.3635 0,-8.9596 -0.2209,-14.5153 -0.6992,-16.6273 -0.6198,-2.746 -0.596,-3.4611 0.1843,-5.3268 1.2395,-2.9589 4.7738,-15.2176 4.7182,-16.3602 -0.032,-0.5117 -0.6182,0.8693 -1.3174,3.0686 -0.6977,2.1978 -2.2328,6.0499 -3.4103,8.5592 l -2.1406,4.5624 -2.7175,-5.1425 c -5.2346,-9.9114 -11.8963,-18.8202 -21.6425,-28.9482 l -5.5429,-5.757 -1.2237,-8.981 c -3.7551,-27.535 -10.5249,-53.551 -19.3017,-74.173 -2.3948,-5.63 -2.6999,-6.725 -1.9817,-7.127 0.4657,-0.263 1.5638,-2.061 2.4378,-4 2.9558,-6.555 2.4616,-15.277 -1.2236,-21.633 -4.189,-7.228 -16.5843,-19.459 -29.6264,-29.239 -29.2085,-21.9005 -62.6838,-38.2525 -98.2075,-47.9745 -3.2784,-0.897 -3.6058,-0.895 -6.1659,0.05 -1.4874,0.547 -2.9049,1.167 -3.1496,1.376 -0.2448,0.209 1.5224,1.197 3.9251,2.197 19.0523,7.923 37.7851,22.824 56.3447,44.8205 l 6.328,7.497 7.8487,4.483 c 15.8263,9.038 34.0029,21.807 48.213,33.867 l 7.2879,6.184 2.897,8.637 c 1.5939,4.75 5.0344,14.818 7.6453,22.372 6.8286,19.755 11.8964,40.566 13.878,56.989 l 0.6865,5.692 -3.5692,4.399 c -7.3959,9.114 -27.6002,28.3791 -53.3396,50.8623 -6.7284,5.8751 -8.3048,7.5357 -8.5178,8.966 -0.143,0.9646 -0.6674,4.6546 -1.1632,8.2 -2.7588,19.7308 -8.5433,44.0685 -16.0742,67.6371 l -3.4294,10.733 8.2079,10.1467 c 4.5148,5.5811 8.2096,10.4105 8.2096,10.7299 0,1.0441 -10.5949,15.2462 -17.1326,22.9679 -5.7225,6.7586 -20.171,20.7335 -27.4366,26.5387 -23.2698,18.5914 -49.373,31.3347 -77.0845,37.6341 -9.5031,2.1596 -8.7705,2.2931 -12.1665,-2.2248 -1.6225,-2.1581 -5.5,-7.6581 -8.6163,-12.2206 l -5.6669,-8.2953 1.872,-2.1628 c 1.0298,-1.1903 3.9617,-4.5275 6.5139,-7.4149 12.1697,-13.7731 25.5089,-35.2663 31.8687,-51.35 1.1267,-2.8494 1.9499,-4.1556 2.7333,-4.3336 0.6166,-0.143 6.4185,-1.1601 12.8943,-2.2661 23.1808,-3.9602 44.6708,-8.8913 62.5042,-14.342 8.6354,-2.6396 13.3424,-4.4481 9.2536,-3.555 -0.9249,0.2019 -5.5906,1.2348 -10.3708,2.2948 -17.7015,3.9251 -38.6924,7.4658 -63.2511,10.6647 -10.6599,1.3889 -12.0981,1.47 -13.2693,0.739 -0.7215,-0.4514 -8.2079,-6.4837 -16.6352,-13.4076 -8.4288,-6.9224 -20.2425,-16.6272 -26.2558,-21.5679 -6.0117,-4.9391 -15.4655,-12.7719 -21.0069,-17.4059 -5.5413,-4.6339 -10.6313,-8.8706 -11.3115,-9.4141 -1.2045,-0.9646 -1.4842,-0.8978 -10.3882,2.4441 -21.1197,7.9267 -40.191,16.1648 -57.6525,24.9019 l -10.3835,5.1949 -2.7921,-2.3154 c -16.3316,-13.5347 -33.0605,-29.1258 -43.3995,-40.4484 -5.3999,-5.9132 -5.3348,-5.6876 1.1378,3.9252 8.2858,12.3063 17.2931,22.4546 31.7257,35.7446 l 9.1455,8.4224 v 6.8985 c 0,18.6851 5.3332,40.601 14.6392,60.1649 1.8195,3.8267 3.2434,7.0193 3.164,7.0956 -0.079,0.079 -4.3066,1.8863 -9.3935,4.0237 -25.1815,10.5789 -30.2572,12.791 -30.2652,13.1883 0,0.4862 -0.2431,0.5292 10.0831,-1.8704 9.8289,-2.2852 15.8088,-3.9205 25.8601,-7.0701 l 8.2016,-2.5697 2.4505,1.6829 c 3.2307,2.2185 13.0166,7.1051 18.3133,9.1455 15.4194,5.9371 33.31,8.761 51.69,8.1587 6.0133,-0.1971 11.6897,-0.4815 12.6146,-0.6309 1.5892,-0.259 1.9324,0.079 6.2835,6.0356 2.5315,3.4707 6.6617,8.5273 9.1789,11.24 2.5172,2.7111 4.3987,5.1075 4.1794,5.3252 -0.2177,0.2177 -8.1745,0.3957 -17.6808,0.3957 -9.5062,0 -17.2438,0.048 -17.1913,0.095 0.048,0.048 3.7519,0.615 8.2222,1.257 9.1916,1.319 21.026,2.2932 27.8911,2.2948 2.5442,0 4.6244,0.2399 4.6244,0.5307 0,0.5817 13.6014,11.8455 13.9193,11.5261 0.1112,-0.1112 -1.149,-1.7941 -2.7953,-3.7456 -1.648,-1.9515 -3.8219,-4.6022 -4.8342,-5.891 l -1.8402,-2.3439 2.4012,-0.3052 c 25.3659,-3.2196 41.7992,-7.6644 59.0223,-15.9597 13.3854,-6.4488 24.4982,-14.2896 35.6874,-25.1784 11.9567,-11.6357 20.6175,-23.6544 28.363,-39.3599 2.6618,-5.3951 4.8946,-9.8924 4.9613,-9.9941 0.1589,-0.2368 3.2721,3.1846 9.8623,10.8348 2.9224,3.3928 7.1988,8.1666 9.5062,10.6122 l 4.1938,4.4449 -3.6805,6.0578 c -6.4853,10.6774 -14.7218,21.5885 -27.3174,36.1911 -3.3419,3.8744 -7.5436,8.8373 -9.3378,11.0287 -4.0507,4.947 -5.875,5.9164 -20.1074,10.6854 -23.7704,7.9632 -53.4683,14.5057 -74.178,16.3411 l -4.4846,0.3973 -4.4845,4.1636 c -8.5337,7.9203 -12.9452,10.1276 -24.387,12.1951 -6.9239,1.2506 -6.97,1.2697 -3.9236,1.5557 5.0407,0.472 23.1872,-0.079 32.5154,-1.0011 z m -79.0471,-11.855 c -34.6815,-8.1714 -63.7374,-23.7815 -91.6427,-49.2364 -3.5788,-3.2641 -8.9977,-7.5469 -12.041,-9.5142 -23.354,-15.1064 -38.8227,-31.3475 -48.739,-51.1704 -8.5925,-17.1771 -13.8001,-36.339 -15.5164,-57.1043 l -0.375,-4.5418 -2.7381,-1.1569 c -1.5065,-0.6356 -2.7381,-0.9884 -2.7365,-0.7834 0,0.2034 0.6341,4.1556 1.4096,8.7816 6.7443,40.2498 16.1584,63.6531 35.0644,87.1724 6.0022,7.469 19.7165,21.5536 27.7147,28.4664 29.6899,25.6583 65.2375,42.678 101.4715,48.5864 4.6244,0.7533 9.0391,1.4763 9.8098,1.6066 4.3717,0.739 3.3817,0.08 -1.6813,-1.106 z m -159.3625,-177.4803 c 15.4068,-12.4763 33.1051,-28.5108 33.4785,-30.3288 0.143,-0.6626 0.3687,-9.0263 0.5165,-18.585 0.3417,-22.132 2.0246,-36.965 6.3152,-55.6888 1.9166,-8.358 1.9436,-8.629 0.9472,-9.74 -0.5642,-0.629 -7.5723,-6.852 -15.5736,-13.829 -8.0014,-6.976 -15.4433,-13.485 -16.5382,-14.464 l -1.9896,-1.78 1.3142,-5.226 c 1.926,-7.66 7.3943,-23.812 10.7855,-31.858 3.4373,-8.154 10.9238,-23.039 14.7377,-29.299 1.4588,-2.395 2.5077,-4.585 2.3329,-4.868 -0.7469,-1.207 18.2386,-16.144 32.3263,-25.434 12.3604,-8.149 27.1664,-16.4415 35.77,-20.0315 1.6956,-0.707 4.723,-2.714 6.7269,-4.461 21.7061,-18.907 40.9172,-30.481 60.5463,-36.475 2.6396,-0.808 3.7869,-1.373 3.083,-1.523 -0.6166,-0.127 -2.2805,-0.731 -3.6964,-1.333 l -2.576,-1.097 -6.9636,1.412 c -22.1161,4.478 -49.3842,14.814 -70.8551,26.859 -18.9919,10.654 -42.5239,28.3595 -51.3977,38.6695 -4.5592,5.297 -6.2898,9.114 -6.2803,13.853 0,3.632 1.5415,9.531 2.4807,9.531 0.2717,0 -1.1585,2.333 -3.1783,5.186 -10.7204,15.141 -22.5658,40.346 -28.0643,59.723 -1.7671,6.224 -2.3169,7.45 -4.332,9.652 -3.8966,4.258 -8.9802,10.7 -12.346,15.644 -3.3341,4.897 -10.4073,18.773 -10.4073,20.416 0,1.621 -0.9615,1.049 -3.8442,-2.282 -5.8242,-6.732 -5.8242,-6.731 -5.0741,-5.205 0.8518,1.736 3.8711,6.408 5.7988,8.974 0.8041,1.071 1.3301,2.289 1.1696,2.707 -1.0345,2.7 -2.1183,16.2916 -2.1311,26.7402 -0.032,20.1344 3.4564,38.3539 10.6553,55.7789 3.2879,7.9584 10.5821,21.8666 11.4704,21.8666 0.2558,0 2.4139,-1.5764 4.7928,-3.5041 z m 169.9875,-19.2826 c 3.3102,-12.8435 11.2686,-39.7524 18.5675,-62.7871 l 1.8021,-5.6859 15.7564,-4.6117 c 27.5653,-8.0663 73.0163,-20.1753 75.7322,-20.1753 0.518,0 6.0292,3.831 12.2491,8.514 15.6117,11.755 43.6188,33.2387 51.3913,39.4204 3.547,2.8208 6.8254,5.3332 7.2878,5.5843 2.6745,1.4493 -21.2167,-21.3867 -32.7951,-31.3506 -6.6061,-5.6831 -19.9708,-16.4711 -31.2744,-25.2461 -4.1159,-3.194 -4.3256,-3.464 -4.3256,-5.606 0,-2.972 -2.5188,-27.915 -3.9618,-39.25 -1.721,-13.53 -5.3792,-36.709 -6.9906,-44.288 -2.433,-11.451 -2.8048,-9.805 2.905,-12.875 21.9937,-11.827 52.3511,-28.503 52.1858,-28.668 -0.1112,-0.112 -1.9514,0.516 -4.0904,1.393 -2.1374,0.879 -9.3108,3.806 -15.9407,6.509 -16.0091,6.524 -24.3918,10.063 -34.2699,14.465 l -8.2032,3.653 -4.6911,-1.873 c -16.6431,-6.649 -41.5736,-11.336 -65.5188,-12.316 -7.7947,-0.32 -28.0182,0.373 -33.0764,1.133 -1.7957,0.27 -2.7095,-0.243 -10.7569,-6.026 -4.8358,-3.477 -11.6468,-8.068 -15.1366,-10.204 -7.8615,-4.814 -21.2596,-12.2215 -21.5599,-11.9195 -0.1271,0.127 1.988,1.635 4.6943,3.36 7.326,4.6705 16.9991,12.1115 26.3655,20.2825 l 8.343,7.278 -4.4639,5.055 c -11.1876,12.671 -20.821,27.61 -29.2545,45.366 -3.601,7.58 -8.1015,18.521 -9.26,22.511 -0.6531,2.249 -0.7691,2.328 -9.3553,6.417 -20.6397,9.828 -46.7478,24.986 -55.1019,31.995 -1.783,1.495 -1.5367,1.374 5.8862,-2.888 10.3501,-5.942 53.543,-26.307 55.798,-26.307 0.8947,0 47.9969,36.362 64.9069,50.107 6.6093,5.3724 9.6175,8.1598 9.4348,8.743 -7.0892,22.6453 -12.9913,50.3425 -14.9364,70.0923 -0.3194,3.2371 -0.731,6.6427 -0.9153,7.5675 -0.1844,0.9249 -0.1637,1.5193 0.048,1.3206 0.2082,-0.1986 1.346,-4.1079 2.5268,-8.6894 z m 291.9287,-69.2596 c -0.1779,-0.4466 -0.3114,-0.3147 -0.3384,0.3384 -0.016,0.5912 0.1112,0.9217 0.2939,0.7358 0.1876,-0.1859 0.2066,-0.669 0.048,-1.0742 z m -197.1586,-214.3299 c 0.7708,-0.442 2.2725,-0.811 3.3356,-0.822 3.7123,-0.03 0.8582,-1.213 -5.6541,-2.328 -18.2339,-3.123 -40.8664,-4.386 -60.8356,-3.399 -12.9325,0.64 -26.2161,1.897 -29.5787,2.8 -1.4827,0.399 -1.2268,0.55 2.8032,1.646 4.27,1.162 4.6785,1.178 10.8841,0.401 24.2789,-3.042 57.5063,-2.402 72.0835,1.39 4.8818,1.271 5.2553,1.287 6.962,0.312 z"
       id="path49" /></g></svg>
